<svg xmlns="http://www.w3.org/2000/svg" width="16" height="12" viewBox="0 0 16 12">
  <g fill="#302C33" fill-rule="evenodd">
    <rect width="1.714" height="4.571" x="5.429" y="3.371"/>
    <rect width="1.714" height="4.571" x="8.857" y="3.371"/>
    <path d="M14.2857143,11.3142857 L1.71428571,11.3142857 C0.767511857,11.3142857 0,10.5467739 0,9.6 L0,1.71428571 C0,0.767511857 0.767511857,0 1.71428571,0 L1.71428571,0.457142857 L14.2857143,0.457142857 C15.2324881,0.457142857 16,1.22465471 16,2.17142857 L16,10.0571429 C16,11.0039167 15.2324881,11.7714286 14.2857143,11.7714286 L14.2857143,11.3142857 Z M14.2857143,9.6 L14.2857143,3.88571429 C14.2857143,2.93894043 13.5182024,2.17142857 12.5714286,2.17142857 L1.71428571,2.17142857 L1.71428571,7.88571429 C1.71428571,8.83248814 2.48179757,9.6 3.42857143,9.6 L14.2857143,9.6 Z"/>
  </g>
</svg>
