<svg xmlns="http://www.w3.org/2000/svg" width="280" height="206" viewBox="0 0 280 206">
  <g fill="#ffffff" fill-rule="evenodd">
    <rect width="30" height="80" x="95" y="59"/>
    <rect width="30" height="80" x="155" y="59"/>
    <path d="M250,198 L30,198 C13.4314575,198 0,184.568542 0,168 L0,30 C0,13.4314575 13.4314575,0 30,0 L30,8 L250,8 C266.568542,8 280,21.4314575 280,38 L280,176 C280,192.568542 266.568542,206 250,206 L250,198 Z M250,168 L250,68 C250,51.4314575 236.568542,38 220,38 L30,38 L30,138 C30,154.568542 43.4314575,168 60,168 L250,168 Z"/>
  </g>
</svg>
